<?xml version="1.0" encoding="UTF-8" standalone="no"?>
<svg
   xmlns:dc="http://purl.org/dc/elements/1.1/"
   xmlns:cc="http://creativecommons.org/ns#"
   xmlns:rdf="http://www.w3.org/1999/02/22-rdf-syntax-ns#"
   xmlns:svg="http://www.w3.org/2000/svg"
   xmlns="http://www.w3.org/2000/svg"
   xmlns:sodipodi="http://sodipodi.sourceforge.net/DTD/sodipodi-0.dtd"
   xmlns:inkscape="http://www.inkscape.org/namespaces/inkscape"
   width="512"
   height="512"
   version="1.1"
   id="svg4"
   sodipodi:docname="space-shuttle-512.svg"
   inkscape:version="0.92.2 (5c3e80d, 2017-08-06)">
  <metadata
     id="metadata10">
    <rdf:RDF>
      <cc:Work
         rdf:about="">
        <dc:format>image/svg+xml</dc:format>
        <dc:type
           rdf:resource="http://purl.org/dc/dcmitype/StillImage" />
      </cc:Work>
    </rdf:RDF>
  </metadata>
  <defs
     id="defs8" />
  <sodipodi:namedview
     pagecolor="#ffffff"
     bordercolor="#666666"
     borderopacity="1"
     objecttolerance="10"
     gridtolerance="10"
     guidetolerance="10"
     inkscape:pageopacity="0"
     inkscape:pageshadow="2"
     inkscape:window-width="1366"
     inkscape:window-height="709"
     id="namedview6"
     showgrid="false"
     inkscape:zoom="0.4609375"
     inkscape:cx="256"
     inkscape:cy="256"
     inkscape:window-x="0"
     inkscape:window-y="0"
     inkscape:window-maximized="1"
     inkscape:current-layer="svg4" />
  <path
     d="M40.25 507.455c-51.888-13.973-44.907-86.945 9.06-94.695 1.26-.181 2.493-2.298 4.068-6.988 6.749-20.097 25.988-33.595 46.527-32.643l5.541.256 1.608-4.442c6.453-17.827 22.343-31.171 38.904-32.673l6.042-.548V358l-2.75.022c-11.86.095-19.857 9.677-23.607 28.29l-2.255 11.188-3.444-.07c-1.894-.04-7.944-.675-13.444-1.413-23.21-3.114-35.736 10.181-36.493 38.733-.004.138-4.845.253-10.757.256-35.432.018-46.912 41.702-14.163 51.427 8.044 2.389 413.782 2.389 421.826 0 29.895-8.878 21.5-52.41-9.913-51.41-4.675.15-10.97.318-13.989.374l-5.488.103-1.81-11.453c-3.637-23.022-10.4-28.92-33.263-29.003L390.4 395l-1.255-6.25c-4.34-21.61-13.067-31.75-27.327-31.75-1.642 0-1.818-1.016-1.818-10.5V336h5.032c17.591 0 38.073 16.488 42.292 34.046.556 2.313 1.296 2.645 8.069 3.62 18.432 2.656 34.171 16.029 38.962 33.104l1.668 5.943 7.238.555c53.94 4.137 58.924 84.822 5.853 94.727-9.32 1.739-422.33 1.22-428.863-.54zm129.205-40.91L167 464.091v-65.857c0-64.774.033-65.893 2.028-68.033 2.721-2.921 6.23-3.666 9.619-2.04 5.477 2.625 5.367 1.098 5.1 71.009l-.247 64.67-2.424 2.58c-3.232 3.44-8.253 3.494-11.621.125zm163.72.14L331 464.372v-66.075c0-74.676-.422-70.696 7.5-70.696 7.923 0 7.5-3.997 7.5 70.836v66.215l-2.314 2.175c-3.075 2.888-7.725 2.826-10.512-.14zm-114.956-21.244L216 443.887v-45.372c0-49.334-.093-48.515 5.515-48.515 5.413 0 5.485.635 5.485 48.531 0 33.755-.293 44.46-1.25 45.677-1.921 2.444-5.067 2.959-7.53 1.233zm70.781.865c-3.932-1.405-4-2.23-4-48.342 0-48.792-.1-47.964 5.757-47.964 5.297 0 5.243-.495 5.243 48.515v45.372l-2.223 1.556c-2.374 1.664-2.482 1.683-4.777.863zm-48.755-38.46c-2.468-2.469-1.716-55.524.807-56.874 7.688-4.115 8.919-.18 8.919 28.528 0 27.958-2.584 35.487-9.726 28.345zm23.312-1.069C262.248 404.91 262 400.558 262 379.5c0-29.557 1.023-32.77 9.066-28.465 2.378 1.273 3.065 54.434.734 56.765-1.989 1.989-6.528 1.426-8.243-1.023zm-48.573-64.527c-.009-.412 2.088-7.612 4.658-16l4.674-15.25h65.309l4.328 14.25c2.381 7.838 4.543 15.037 4.805 16 .447 1.647-2.016 1.75-41.641 1.75-23.165 0-42.124-.338-42.133-.75zM165 310.19c0-.445 2.025-6.38 4.5-13.19s4.5-12.52 4.5-12.69c0-.17 7.542-.31 16.76-.31h16.76l4.317 12.12c2.375 6.667 4.556 12.742 4.848 13.5.441 1.151-3.795 1.38-25.578 1.38-14.359 0-26.107-.364-26.107-.81zm131.167.003c.183-.444 2.353-6.52 4.823-13.5L305.48 284H338.758l1.093 2.75c2.363 5.945 8.149 22.538 8.149 23.37 0 .484-11.716.88-26.083.88-14.346 0-25.934-.363-25.75-.807zM224 294v-10h65v20h-65zm-50-27.5V257h32v19h-32zm42 0V257h80v19h-80zm90 0V257h32v19h-32zm-139.816-35.25c.426-22.598 2.617-26.843 18.021-34.918 13.184-6.91 23.196-19.177 28.968-35.489l2.827-7.988v-49.8c0-76.017 9.14-98.529 40-98.529 30.864 0 40 22.51 40 98.55v49.82l2.474 7.802c5.036 15.878 15.652 28.688 30.58 36.898 13.66 7.513 15.932 12.526 15.94 35.154L345 248h-46.77l-.7-5.75c-.978-8.034-3.556-13.31-8.36-17.115l-4.116-3.26-.277-84.688L284.5 52.5l-3.286-6.939c-11.947-25.228-40.82-23.972-51.41 2.237L227.5 53.5l-.272 84.333-.272 84.333-2.9 2.44c-4.024 3.387-6.928 9.878-7.693 17.2l-.648 6.194H165.868zm58.19 12.043c.856-6.252 3.587-11.344 7.397-13.793l3.111-2 .313-86c.353-97.235-.115-91.632 8.366-100.114 10.48-10.48 25.115-6.15 31.03 9.181 1.808 4.69 1.916 9.17 2.182 90.94l.28 86.005 3.708 1.994c4.241 2.281 7.704 7.934 8.726 14.244l.689 4.25H260v-26.465c0-25.441-.077-26.506-2-27.535-5.657-3.028-6-1.455-6 27.535V248h-28.272zM247 69.26c3.708-11.693 15.8-11.653 19.162.064 1.505 5.242 1.482 5.217 3.314 3.696 4.9-4.066-.82-16.458-9.045-19.6-9.634-3.679-23.623 11.619-17.439 19.07 1.9 2.29 2.38 1.903 4.008-3.23zm-72.782 67.49l.282-55.25 2.842-6.151c7.435-16.09 17.88-16.09 25.316 0L205.5 81.5v78.101l-3.694 7.45C196.862 177.02 180.633 192 174.776 192c-.462 0-.714-24.863-.558-55.25zm11.908-43.958c.626-7.695 3.265-14.252 6.477-16.092 1.823-1.043 1.779-3.138-.098-4.696-5.44-4.515-15.603 18.48-12.148 27.485 1.894 4.936 5.13 1.181 5.77-6.697zm143.889 95.37c-9.13-5.52-15.441-12.222-19.782-21.004l-3.733-7.554V81.5l2.842-6.151c7.435-16.09 17.88-16.09 25.316 0L337.5 81.5l.282 55.25c.156 30.387-.1 55.25-.568 55.25-.468 0-3.708-1.727-7.2-3.838zm3.428-94.762c-.093-11.632-7.544-25.05-11.902-21.434-2.17 1.801-1.925 3.325.977 6.051C325.512 80.829 328 88.545 328 95.015c0 5.264.556 6.193 3.459 5.777 1.842-.264 2.035-.984 1.984-7.392z"
     id="path2"
     style="fill:#ffffff" />
</svg>
